<?xml version="1.0" encoding="UTF-8" standalone="no"?>
<svg
   xmlns:dc="http://purl.org/dc/elements/1.1/"
   xmlns:cc="http://creativecommons.org/ns#"
   xmlns:rdf="http://www.w3.org/1999/02/22-rdf-syntax-ns#"
   xmlns:svg="http://www.w3.org/2000/svg"
   xmlns="http://www.w3.org/2000/svg"
   xmlns:sodipodi="http://sodipodi.sourceforge.net/DTD/sodipodi-0.dtd"
   xmlns:inkscape="http://www.inkscape.org/namespaces/inkscape"
   inkscape:export-ydpi="95.25"
   inkscape:export-xdpi="95.25"
   inkscape:export-filename="C:\PROGRAMMING\Git\tekken-overlay\assets\textures\frame-text-back-0.png"
   sodipodi:docname="frame-text.svg"
   inkscape:version="1.0 (4035a4fb49, 2020-05-01)"
   version="1.1"
   id="svg2"
   viewBox="0 0 1536 128"
   height="128"
   width="1536">
  <defs
     id="defs4">
    <filter
       height="1.0660461"
       y="-0.033023066"
       width="1.0820899"
       x="-0.041044928"
       id="filter5939"
       style="color-interpolation-filters:sRGB"
       inkscape:collect="always">
      <feGaussianBlur
         id="feGaussianBlur5941"
         stdDeviation="0.95286304"
         inkscape:collect="always" />
    </filter>
    <filter
       height="1.0672408"
       y="-0.033620404"
       width="1.0901701"
       x="-0.045085037"
       id="filter5943"
       style="color-interpolation-filters:sRGB"
       inkscape:collect="always">
      <feGaussianBlur
         id="feGaussianBlur5945"
         stdDeviation="0.95286304"
         inkscape:collect="always" />
    </filter>
    <filter
       height="1.066926"
       y="-0.033462992"
       width="1.090181"
       x="-0.045090484"
       id="filter5947"
       style="color-interpolation-filters:sRGB"
       inkscape:collect="always">
      <feGaussianBlur
         id="feGaussianBlur5949"
         stdDeviation="0.95286304"
         inkscape:collect="always" />
    </filter>
    <filter
       height="1.0664405"
       y="-0.033220251"
       width="1.091538"
       x="-0.045769"
       id="filter5951"
       style="color-interpolation-filters:sRGB"
       inkscape:collect="always">
      <feGaussianBlur
         id="feGaussianBlur5953"
         stdDeviation="0.95286304"
         inkscape:collect="always" />
    </filter>
    <filter
       height="1.0672659"
       y="-0.03363297"
       width="1.0798909"
       x="-0.039945456"
       id="filter5955"
       style="color-interpolation-filters:sRGB"
       inkscape:collect="always">
      <feGaussianBlur
         id="feGaussianBlur5957"
         stdDeviation="0.95286304"
         inkscape:collect="always" />
    </filter>
    <filter
       height="1.0666253"
       y="-0.03331265"
       width="1.0940625"
       x="-0.047031254"
       id="filter5959"
       style="color-interpolation-filters:sRGB"
       inkscape:collect="always">
      <feGaussianBlur
         id="feGaussianBlur5961"
         stdDeviation="0.95286304"
         inkscape:collect="always" />
    </filter>
    <filter
       height="1.0666542"
       y="-0.033327096"
       width="1.0875626"
       x="-0.043781312"
       id="filter5963"
       style="color-interpolation-filters:sRGB"
       inkscape:collect="always">
      <feGaussianBlur
         id="feGaussianBlur5965"
         stdDeviation="0.95286304"
         inkscape:collect="always" />
    </filter>
    <filter
       height="1.0671237"
       y="-0.033561871"
       width="1.0884725"
       x="-0.044236241"
       id="filter5967"
       style="color-interpolation-filters:sRGB"
       inkscape:collect="always">
      <feGaussianBlur
         id="feGaussianBlur5969"
         stdDeviation="0.95286304"
         inkscape:collect="always" />
    </filter>
    <filter
       height="1.0661521"
       y="-0.033076057"
       width="1.0897257"
       x="-0.044862833"
       id="filter5971"
       style="color-interpolation-filters:sRGB"
       inkscape:collect="always">
      <feGaussianBlur
         id="feGaussianBlur5973"
         stdDeviation="0.95286304"
         inkscape:collect="always" />
    </filter>
    <filter
       height="1.0666533"
       y="-0.033326636"
       width="1.087488"
       x="-0.043743987"
       id="filter5975"
       style="color-interpolation-filters:sRGB"
       inkscape:collect="always">
      <feGaussianBlur
         id="feGaussianBlur5977"
         stdDeviation="0.95286304"
         inkscape:collect="always" />
    </filter>
    <filter
       height="1.0852363"
       y="-0.042618128"
       width="1.0849592"
       x="-0.042479593"
       id="filter5979"
       style="color-interpolation-filters:sRGB"
       inkscape:collect="always">
      <feGaussianBlur
         id="feGaussianBlur5981"
         stdDeviation="0.95286304"
         inkscape:collect="always" />
    </filter>
    <filter
       height="1.2013128"
       y="-0.10065638"
       width="1.1171955"
       x="-0.058597765"
       id="filter5983"
       style="color-interpolation-filters:sRGB"
       inkscape:collect="always">
      <feGaussianBlur
         id="feGaussianBlur5985"
         stdDeviation="0.95286304"
         inkscape:collect="always" />
    </filter>
  </defs>
  <sodipodi:namedview
     guidehiopacity="0.49803922"
     guidehicolor="#ff00ff"
     guideopacity="0.49803922"
     guidecolor="#00ff00"
     inkscape:document-rotation="0"
     inkscape:snap-to-guides="true"
     inkscape:snap-grids="true"
     inkscape:guide-bbox="true"
     showguides="true"
     inkscape:window-maximized="1"
     inkscape:window-y="-8"
     inkscape:window-x="-8"
     inkscape:window-height="1017"
     inkscape:window-width="1920"
     inkscape:snap-page="true"
     inkscape:snap-text-baseline="true"
     inkscape:snap-center="true"
     inkscape:snap-object-midpoints="true"
     inkscape:snap-midpoints="true"
     inkscape:snap-smooth-nodes="false"
     inkscape:object-nodes="true"
     inkscape:snap-intersection-paths="true"
     inkscape:object-paths="true"
     inkscape:snap-bbox-midpoints="true"
     inkscape:snap-bbox-edge-midpoints="true"
     inkscape:bbox-nodes="true"
     inkscape:bbox-paths="true"
     inkscape:snap-bbox="true"
     units="px"
     showgrid="true"
     inkscape:current-layer="layer1"
     inkscape:document-units="px"
     inkscape:cy="120.88193"
     inkscape:cx="874.98944"
     inkscape:zoom="0.70710682"
     inkscape:pageshadow="2"
     inkscape:pageopacity="0"
     borderopacity="1.0"
     bordercolor="#666666"
     pagecolor="#2c2c2c"
     id="base">
    <inkscape:grid
       empspacing="4"
       spacingy="4"
       spacingx="4"
       id="grid4684"
       type="xygrid"
       color="#4c4c4c"
       opacity="0.1254902"
       empcolor="#656565"
       empopacity="0.25098039" />
    <sodipodi:guide
       id="guide860"
       orientation="0,-1"
       position="0,64" />
    <sodipodi:guide
       id="guide5932"
       orientation="0,-1"
       position="0,-64" />
  </sodipodi:namedview>
  <metadata
     id="metadata7">
    <rdf:RDF>
      <cc:Work
         rdf:about="">
        <dc:format>image/svg+xml</dc:format>
        <dc:type
           rdf:resource="http://purl.org/dc/dcmitype/StillImage" />
        <dc:title />
      </cc:Work>
    </rdf:RDF>
  </metadata>
  <g
     transform="translate(0,-967.36216)"
     id="layer1"
     inkscape:groupmode="layer"
     inkscape:label="Layer 1">
    <text
       id="text864"
       y="923.36218"
       x="-16"
       style="font-style:normal;font-weight:normal;font-size:40px;line-height:1.25;font-family:sans-serif;fill:#000000;fill-opacity:1;stroke:none"
       xml:space="preserve"><tspan
         y="923.36218"
         x="-16"
         id="tspan862"
         sodipodi:role="line" /></text>
    <g
       inkscape:export-ydpi="95.25"
       inkscape:export-xdpi="95.25"
       id="g1079">
      <g
         id="g1049">
        <rect
           y="967.36218"
           x="1408"
           height="128"
           width="128"
           id="rect995"
           style="opacity:1;fill:#0000ff;fill-opacity:1;stroke-width:0.942809" />
        <rect
           style="opacity:1;fill:#00ff00;fill-opacity:1;stroke-width:0.942809"
           id="rect997"
           width="128"
           height="128"
           x="1280"
           y="967.36218" />
        <rect
           style="opacity:1;fill:#0000ff;fill-opacity:1;stroke-width:0.942809"
           id="rect991"
           width="128"
           height="128"
           x="1152"
           y="967.36218" />
        <rect
           y="967.36218"
           x="1024"
           height="128"
           width="128"
           id="rect993"
           style="opacity:1;fill:#00ff00;fill-opacity:1;stroke-width:0.942809" />
        <rect
           y="967.36218"
           x="896"
           height="128"
           width="128"
           id="rect987"
           style="opacity:1;fill:#0000ff;fill-opacity:1;stroke-width:0.942809" />
        <rect
           style="opacity:1;fill:#00ff00;fill-opacity:1;stroke-width:0.942809"
           id="rect989"
           width="128"
           height="128"
           x="768"
           y="967.36218" />
        <rect
           style="opacity:1;fill:#0000ff;fill-opacity:1;stroke-width:0.942809"
           id="rect983"
           width="128"
           height="128"
           x="640"
           y="967.36218" />
        <rect
           y="967.36218"
           x="512"
           height="128"
           width="128"
           id="rect985"
           style="opacity:1;fill:#00ff00;fill-opacity:1;stroke-width:0.942809" />
        <rect
           y="967.36218"
           x="384"
           height="128"
           width="128"
           id="rect979"
           style="opacity:1;fill:#0000ff;fill-opacity:1;stroke-width:0.942809" />
        <rect
           style="opacity:1;fill:#00ff00;fill-opacity:1;stroke-width:0.942809"
           id="rect981"
           width="128"
           height="128"
           x="256"
           y="967.36218" />
        <rect
           style="opacity:1;fill:#0000ff;fill-opacity:1;stroke-width:0.942809"
           id="rect21-9-4"
           width="128"
           height="128"
           x="128"
           y="967.36218" />
        <rect
           y="967.36218"
           x="0"
           height="128"
           width="128"
           id="rect21-9"
           style="opacity:1;fill:#00ff00;stroke-width:0.942809;fill-opacity:1" />
      </g>
      <g
         id="g5900">
        <text
           xml:space="preserve"
           style="font-style:normal;font-variant:normal;font-weight:normal;font-stretch:normal;font-size:85.3333px;line-height:1.25;font-family:Expressway;-inkscape-font-specification:Expressway;fill:#ffffff;fill-opacity:1;stroke:none"
           x="64.041664"
           y="1058.5704"
           id="text923"><tspan
             style="font-style:normal;font-variant:normal;font-weight:bold;font-stretch:normal;font-size:85.3333px;font-family:Consolas;-inkscape-font-specification:'Consolas Bold';text-align:center;text-anchor:middle;fill:#ffffff"
             sodipodi:role="line"
             id="tspan921"
             x="64.041664"
             y="1058.5704">0</tspan></text>
        <path
           transform="translate(0,967.36216)"
           id="path918"
           d="M 59.958267,91.832211 C 51.236216,90.345428 45.857774,84.462641 43.751549,74.105764 42.28916,66.914808 42.687022,57.208873 44.697115,51.03844 c 2.015967,-6.188462 5.635626,-10.677852 10.489063,-13.009372 3.412649,-1.639387 4.692447,-1.89212 9.525004,-1.880988 4.157224,0.0096 4.30149,0.02782 6.609545,0.835859 3.016855,1.056185 4.848216,2.183235 6.82891,4.202623 2.948221,3.005813 5.24215,7.894744 6.278737,13.38154 0.621661,3.29053 0.746726,12.586888 0.219423,16.310067 -1.660655,11.725503 -7.700063,19.137201 -16.939129,20.788073 -1.744195,0.31166 -6.320786,0.409663 -7.750401,0.165969 z m 7.633968,-8.689956 c 3.714011,-1.746581 6.311311,-6.526203 7.160846,-13.177581 0.300997,-2.35662 0.365052,-8.677087 0.08787,-8.669941 -0.150601,0.0039 -19.929984,14.200477 -20.305289,14.574061 -0.058,0.05773 0.294247,0.95163 0.782766,1.98644 1.45635,3.084926 3.808398,5.188744 6.594883,5.898874 1.566561,0.399236 4.112093,0.124978 5.678927,-0.611853 z M 62.951943,59.981277 c 5.346339,-3.854713 9.934472,-7.210702 10.195855,-7.457752 0.465324,-0.439809 0.456614,-0.48864 -0.417426,-2.340081 -1.152858,-2.442048 -2.780674,-4.183829 -4.882911,-5.224762 -1.465043,-0.725424 -1.876737,-0.814633 -3.779637,-0.819004 -1.908975,-0.0044 -2.312762,0.08185 -3.806474,0.812946 -4.212924,2.062007 -6.73963,7.686674 -7.203432,16.035466 -0.190192,3.423597 -0.150828,6.001012 0.09166,6.001569 0.04496,1.03e-4 4.456026,-3.153668 9.802364,-7.008382 z"
           style="opacity:1;fill:#ffffff;fill-opacity:1;stroke-width:0.25" />
        <path
           transform="translate(0,967.36216)"
           id="path920"
           d="m 174.97048,86.644525 0.01,-4.374988 6.96513,0.016 6.96513,0.016 -0.0811,-17.562732 c -0.0446,-9.659503 -0.10469,-17.591141 -0.13351,-17.625862 -0.0288,-0.03472 -2.72138,1.408905 -5.98346,3.208058 -3.26208,1.799152 -5.96383,3.227554 -6.00388,3.174226 -0.24607,-0.327639 -3.13754,-7.81907 -3.05113,-7.905087 0.0583,-0.05806 3.9161,-2.1146 8.57283,-4.570091 l 8.46678,-4.464528 4.19412,0.0096 4.19411,0.0096 -0.0525,22.874939 -0.0525,22.87494 5.99998,0.01378 5.99999,0.01378 -0.01,4.374988 -0.0101,4.374988 -17.99995,-0.04134 -17.99996,-0.04134 z"
           style="opacity:1;fill:#ffffff;fill-opacity:1;stroke-width:0.25" />
        <path
           transform="translate(0,967.36216)"
           id="path922"
           d="m 301.96878,87.529387 0.008,-3.531835 7.74983,-7.8151 c 10.61742,-10.706823 13.07123,-13.563409 14.94187,-17.394482 2.08597,-4.272058 1.66609,-9.881067 -0.90221,-12.052248 -1.7981,-1.520065 -2.5847,-1.75646 -5.82484,-1.750515 -2.49708,0.0046 -3.23687,0.09856 -4.41276,0.560583 -1.54045,0.605262 -4.11639,2.179986 -5.41736,3.311744 -0.45257,0.393702 -0.90956,0.715622 -1.01554,0.715378 -0.10598,-2.43e-4 -1.32902,-1.461104 -2.71787,-3.246357 l -2.52517,-3.245915 1.17376,-0.974695 c 5.4989,-4.566333 11.98001,-6.638967 18.71554,-5.985158 7.64998,0.742573 12.53659,4.419365 14.47861,10.894017 0.60911,2.030779 0.60094,7.269237 -0.0152,9.74999 -0.61006,2.45623 -2.60377,6.350848 -4.58303,8.952777 -1.7187,2.259388 -6.64815,7.341786 -12.57814,12.96841 l -3.32702,3.156819 11.50724,0.02643 11.50723,0.02643 -0.0106,4.624988 -0.0106,4.624988 -18.37495,-0.04221 -18.37495,-0.04221 z"
           style="opacity:1;fill:#ffffff;fill-opacity:1;stroke-width:0.25" />
        <path
           id="path924"
           d="m 434.97902,1058.9809 c -1.29538,-0.1175 -2.84187,-0.2877 -3.43664,-0.3783 l -1.08141,-0.1647 0.01,-4.2666 0.01,-4.2666 1.06211,0.1733 c 3.64727,0.5951 5.63806,0.7416 10.43576,0.7682 5.94243,0.033 7.24649,-0.171 10.18069,-1.5925 2.81124,-1.362 4.19131,-3.7094 4.17453,-7.1008 -0.0144,-2.9179 -1.24709,-4.8282 -4.01765,-6.2264 -2.36714,-1.1945 -4.06253,-1.4721 -9.86209,-1.6145 l -5.43721,-0.1335 0.008,-3.687 0.008,-3.687 4.56282,-0.1347 c 4.80965,-0.1419 6.17933,-0.3841 8.3159,-1.4707 2.51999,-1.2816 3.72344,-3.346 3.74684,-6.4274 0.0167,-2.2038 -0.36578,-3.4677 -1.41165,-4.6644 -1.54422,-1.7669 -3.59012,-2.3934 -7.8128,-2.3924 -3.27708,7e-4 -6.12876,0.4033 -9.82518,1.3871 -1.28259,0.3413 -2.43636,0.6204 -2.56393,0.6201 -0.13312,-3e-4 -0.22798,-1.7355 -0.22261,-4.0721 l 0.009,-4.0715 2.43904,-0.6663 c 6.8635,-1.8749 14.01848,-2.1017 19.35622,-0.6135 7.09927,1.9793 10.92967,7.188 10.293,13.9966 -0.45177,4.8313 -2.63305,8.1451 -6.75725,10.2657 -0.8986,0.462 -1.63437,0.8983 -1.63504,0.9695 -6.6e-4,0.071 0.74676,0.3274 1.66096,0.5694 2.36544,0.6262 4.6242,1.8156 6.0424,3.1816 2.55153,2.4576 3.60125,5.0537 3.59698,8.8955 -0.005,4.6378 -1.29719,7.8802 -4.3313,10.8699 -2.88918,2.8468 -6.76223,4.6246 -12.24417,5.6203 -2.5284,0.4593 -11.61197,0.6458 -15.27421,0.3137 z"
           style="opacity:1;fill:#ffffff;fill-opacity:1;stroke-width:0.25" />
        <path
           transform="translate(0,967.36216)"
           id="path926"
           d="m 579.724,85.574216 0.0129,-5.624985 -12.74997,-0.02929 -12.74996,-0.02929 0.01,-4.162251 0.01,-4.162254 10.60229,-17.310377 10.60229,-17.310377 6.93748,0.01288 6.93749,0.01288 -0.0393,17.124955 -0.0393,17.124954 4.12499,0.0095 4.12499,0.0095 -0.01,4.374988 -0.0101,4.374988 -4.12499,-0.0095 -4.12499,-0.0095 -0.0126,5.463835 -0.0126,5.463833 -1.68786,0.155499 c -0.92832,0.08552 -3.06598,0.15313 -4.75036,0.150239 l -3.06249,-0.0053 z m 0.0616,-26.8035 C 579.81,48.13745 579.7637,46.39494 579.46497,46.707448 c -0.25613,0.267926 -13.9868,21.932484 -15.30178,24.143487 -0.14689,0.246968 1.4604,0.315855 7.70412,0.330197 l 7.88974,0.01812 z"
           style="opacity:1;fill:#ffffff;fill-opacity:1;stroke-width:0.25" />
        <path
           transform="translate(0,967.36216)"
           id="path928"
           d="m 694.71001,91.795415 c -1.69912,-0.12562 -6.03205,-0.618107 -6.81074,-0.774116 l -0.68719,-0.137676 0.01,-4.249989 0.01,-4.249988 0.81211,0.171618 c 4.45757,0.941996 12.3052,1.210322 15.61783,0.53401 5.96837,-1.218512 9.10994,-5.683155 7.75537,-11.021528 -1.3379,-5.272674 -5.43812,-6.732096 -18.04336,-6.422301 l -5.02181,0.123418 -0.15117,-6.451012 c -0.0831,-3.548056 -0.14294,-10.032752 -0.13289,-14.410436 l 0.0183,-7.959426 6.43749,0.01442 c 3.54061,0.0079 10.57202,-0.05042 15.62534,-0.129665 l 9.18785,-0.144081 -0.011,4.790541 -0.011,4.790542 -10.99997,-0.02527 -10.99997,-0.02527 -0.009,4.088317 c -0.005,2.248574 0.0613,4.779983 0.1477,5.625354 l 0.15708,1.537037 2.56289,0.0059 c 8.83005,0.02028 14.78216,1.824867 18.3503,5.563522 4.13852,4.336284 5.00075,12.737837 1.90494,18.561554 -1.09703,2.063683 -4.33334,5.299525 -6.58487,6.583927 -5.13763,2.930802 -11.66578,4.162713 -19.13334,3.610606 z"
           style="opacity:1;fill:#ffffff;fill-opacity:1;stroke-width:0.25" />
        <path
           transform="translate(0,967.36216)"
           id="path930"
           d="m 827.83565,91.667621 c -10.71069,-2.103472 -15.57431,-10.641918 -14.98538,-26.307982 0.2686,-7.145077 1.15523,-11.339551 3.32766,-15.742397 0.74545,-1.510792 1.85411,-3.370488 2.4637,-4.132659 2.48005,-3.100786 6.12335,-5.459768 10.56582,-6.841194 4.07869,-1.268308 6.58142,-1.613604 12.81659,-1.768278 l 5.56283,-0.137996 -0.01,4.260293 -0.01,4.260292 -6.06277,0.112418 c -6.58026,0.122014 -7.89521,0.320878 -10.81131,1.635035 -2.97058,1.338708 -5.2495,4.083197 -6.23279,7.506126 -0.35812,1.246642 -0.94375,5.025071 -0.80471,5.191948 0.0316,0.0379 0.59481,-0.159978 1.25162,-0.439735 3.49195,-1.48734 8.31027,-2.16864 12.26266,-1.733914 7.98387,0.878151 12.62644,4.567343 14.34149,11.396363 0.67494,2.687505 0.67345,7.083008 -0.003,9.70395 -1.63961,6.350036 -6.39221,10.905709 -13.24712,12.698231 -2.49674,0.652882 -7.92896,0.82978 -10.42543,0.339499 z m 8.39454,-8.496635 c 3.44817,-1.226578 5.51448,-4.495398 5.51709,-8.727823 0.003,-4.962976 -2.22656,-7.82732 -6.7429,-8.662418 -2.78287,-0.514571 -7.4149,0.307029 -10.50292,1.862942 -1.40833,0.709595 -1.34823,0.43881 -0.99675,4.490443 0.25391,2.927013 0.9327,5.799652 1.7521,7.414981 1.01722,2.005274 2.98198,3.483069 5.28935,3.978382 1.44314,0.309793 4.31777,0.129496 5.68403,-0.356507 z"
           style="opacity:1;fill:#ffffff;fill-opacity:1;stroke-width:0.25" />
        <path
           id="path932"
           d="m 946.31543,1057.0909 c 0.3282,-0.7211 5.13081,-10.6318 10.67246,-22.0237 5.54166,-11.3919 10.07595,-20.8034 10.0762,-20.9144 2.6e-4,-0.111 -5.84952,-0.2153 -12.9995,-0.2317 l -12.99996,-0.03 0.0112,-4.875 0.0112,-4.875 18.74995,0.043 18.74995,0.043 -0.008,4.4375 -0.008,4.4375 -10.86627,22.6604 -10.86627,22.6604 -5.55934,-0.011 -5.55934,-0.011 0.59673,-1.3111 z"
           style="opacity:1;fill:#ffffff;fill-opacity:1;stroke-width:0.25" />
        <path
           transform="translate(0,967.36216)"
           id="path934"
           d="m 1083.711,91.825688 c -7.9803,-0.939187 -13.2178,-4.751312 -14.4826,-10.541243 -0.4417,-2.021912 -0.1869,-5.95674 0.5016,-7.746203 1.2163,-3.161132 3.6057,-5.936576 7.2057,-8.369873 1.1493,-0.776885 2.0899,-1.480869 2.0901,-1.564408 2e-4,-0.08354 -0.7579,-0.648068 -1.6847,-1.254506 -3.7479,-2.452597 -6.4245,-6.105215 -7.0704,-9.64857 -0.357,-1.958725 -0.1147,-5.121444 0.5347,-6.978609 1.4806,-4.234524 5.2512,-7.472347 10.3266,-8.86755 5.6321,-1.548269 13.3968,-0.966326 18.1551,1.360683 4.647,2.27259 7.1829,6.928307 6.5296,11.987836 -0.5826,4.511896 -2.7611,7.810379 -7.2227,10.936129 -0.8608,0.603034 -1.5613,1.158664 -1.5566,1.234732 0,0.07607 0.9588,0.75018 2.1204,1.498027 3.4671,2.232202 5.6873,4.778084 7.0079,8.036251 0.5222,1.288192 0.6828,2.173563 0.772,4.256454 0.1366,3.186519 -0.1872,4.898498 -1.3715,7.252156 -3.1164,6.193866 -11.914,9.578672 -21.8552,8.408694 z m 8.5654,-8.193147 c 3.0842,-0.944863 4.6967,-2.997714 4.7092,-5.995229 0.015,-3.515905 -2.2098,-6.043846 -7.9414,-9.024457 l -2.0925,-1.088211 -1.0312,0.546075 c -3.1268,1.655767 -5.6724,4.281815 -6.5386,6.745084 -0.5323,1.513579 -0.4947,4.153467 0.077,5.420211 0.6367,1.410311 2.328,2.785627 4.1369,3.363919 2.1467,0.6863 6.4933,0.702629 8.6804,0.03261 z m -0.9526,-26.405439 c 3.171,-2.097611 4.9774,-4.9197 4.9843,-7.786949 0.01,-2.595379 -0.897,-3.968269 -3.363,-5.111305 -1.1215,-0.519832 -1.6179,-0.579621 -4.8737,-0.5871 -3.2538,-0.0075 -3.7528,0.05023 -4.8732,0.56352 -2.406,1.102271 -3.384,2.576176 -3.3898,5.10847 0,2.039923 0.8367,3.806928 2.5057,5.261762 1.4303,1.246859 6.4432,3.993002 6.9513,3.80807 0.1943,-0.0707 1.1205,-0.636106 2.0584,-1.256468 z"
           style="opacity:1;fill:#ffffff;fill-opacity:1;stroke-width:0.25" />
        <path
           transform="translate(0,967.36216)"
           id="path936"
           d="m 1198.9726,86.909494 0.01,-4.287888 4.6875,0.0088 c 9.1609,0.01704 13.4931,-0.992962 16.5776,-3.864842 2.0129,-1.874224 3.3688,-5.231288 3.854,-9.542287 0.1052,-0.934681 0.065,-1.057906 -0.295,-0.911463 -4.7596,1.93464 -9.275,2.623943 -13.671,2.086912 -8.8512,-1.081301 -13.6271,-5.738983 -14.2993,-13.945204 -0.7073,-8.63535 2.6658,-14.904134 9.8735,-18.349731 3.2857,-1.570714 5.4263,-2.021845 9.6297,-2.029438 6.8229,-0.01232 11.0691,1.688101 14.4908,5.802945 2.2862,2.749295 3.8195,6.460167 4.6383,11.225794 0.5736,3.338979 0.5583,12.384025 -0.027,15.974959 -1.5904,9.75554 -5.5977,15.748251 -12.7608,19.083242 -4.3392,2.020256 -8.2299,2.691476 -16.7801,2.894872 l -5.9378,0.141254 z m 20.4327,-25.128478 c 0.8255,-0.222592 2.291,-0.766862 3.2566,-1.20949 l 1.7557,-0.80478 -0.1724,-3.106292 c -0.4768,-8.592228 -3.2968,-12.331523 -9.2897,-12.31816 -5.5234,0.01232 -8.8933,3.529334 -8.9065,9.295467 -0.01,4.572313 1.9653,7.430019 5.8265,8.427263 1.6081,0.415315 5.4775,0.269367 7.5298,-0.284008 z"
           style="opacity:1;fill:#ffffff;fill-opacity:1;stroke-width:0.25" />
        <path
           transform="translate(0,967.36216)"
           id="path938"
           d="m 1339.4872,80.694331 0.018,-7.999978 -7.75,-0.0178 -7.75,-0.0178 0.01,-4.124989 0.01,-4.124989 7.7499,0.0178 7.75,0.0178 0.018,-7.962924 0.018,-7.962924 2.0629,-0.155818 c 1.1345,-0.0857 3.1597,-0.153973 4.5003,-0.151718 l 2.4375,0.0041 -0.019,8.124979 -0.019,8.124978 7.75,0.0178 7.75,0.0178 -0.01,3.99999 -0.01,3.999989 -7.1875,-0.0131 c -3.9531,-0.0072 -7.4408,0.05416 -7.7503,0.136356 l -0.5629,0.149452 -0.018,7.97082 -0.018,7.970823 -4.5,-0.01034 -4.5,-0.01034 0.018,-7.999979 z"
           style="opacity:1;fill:#ffffff;fill-opacity:1;stroke-width:0.25" />
        <path
           id="path940"
           d="m 1459.2652,1035.9969 0.01,-4.3348 7.3128,-0.148 c 4.0221,-0.081 9.7598,-0.1426 12.7504,-0.136 l 5.4375,0.012 -0.01,4.5 -0.01,4.4999 -12.75,-0.029 -12.75,-0.029 z"
           style="opacity:1;fill:#ffffff;fill-opacity:1;stroke-width:0.25" />
      </g>
    </g>
    <g
       inkscape:export-ydpi="190.625"
       inkscape:export-xdpi="190.625"
       transform="translate(0,128)"
       id="g4387">
      <rect
         y="967.36218"
         x="1408"
         height="128"
         width="128"
         id="rect4363"
         style="opacity:1;fill:#0000ff;fill-opacity:1;stroke-width:0.942809" />
      <rect
         style="opacity:1;fill:#00ff00;fill-opacity:1;stroke-width:0.942809"
         id="rect4365"
         width="128"
         height="128"
         x="1280"
         y="967.36218" />
      <rect
         style="opacity:1;fill:#0000ff;fill-opacity:1;stroke-width:0.942809"
         id="rect4367"
         width="128"
         height="128"
         x="1152"
         y="967.36218" />
      <rect
         y="967.36218"
         x="1024"
         height="128"
         width="128"
         id="rect4369"
         style="opacity:1;fill:#00ff00;fill-opacity:1;stroke-width:0.942809" />
      <rect
         y="967.36218"
         x="896"
         height="128"
         width="128"
         id="rect4371"
         style="opacity:1;fill:#0000ff;fill-opacity:1;stroke-width:0.942809" />
      <rect
         style="opacity:1;fill:#00ff00;fill-opacity:1;stroke-width:0.942809"
         id="rect4373"
         width="128"
         height="128"
         x="768"
         y="967.36218" />
      <rect
         style="opacity:1;fill:#0000ff;fill-opacity:1;stroke-width:0.942809"
         id="rect4375"
         width="128"
         height="128"
         x="640"
         y="967.36218" />
      <rect
         y="967.36218"
         x="512"
         height="128"
         width="128"
         id="rect4377"
         style="opacity:1;fill:#00ff00;fill-opacity:1;stroke-width:0.942809" />
      <rect
         y="967.36218"
         x="384"
         height="128"
         width="128"
         id="rect4379"
         style="opacity:1;fill:#0000ff;fill-opacity:1;stroke-width:0.942809" />
      <rect
         style="opacity:1;fill:#00ff00;fill-opacity:1;stroke-width:0.942809"
         id="rect4381"
         width="128"
         height="128"
         x="256"
         y="967.36218" />
      <rect
         style="opacity:1;fill:#0000ff;fill-opacity:1;stroke-width:0.942809"
         id="rect4383"
         width="128"
         height="128"
         x="128"
         y="967.36218" />
      <rect
         y="967.36218"
         x="0"
         height="128"
         width="128"
         id="rect4385"
         style="opacity:1;fill:#00ff00;fill-opacity:1;stroke-width:0.942809" />
    </g>
    <g
       id="g6012">
      <path
         style="opacity:1;fill:#ffffff;fill-opacity:1;stroke:none;stroke-width:0.707107;filter:url(#filter5939)"
         d="m 63.797578,157.47821 c -11.561084,-0.26068 -22.124226,7.96461 -25.228319,19.01003 -4.42097,14.02893 -3.40318,31.03149 6.26422,42.69371 11.338459,12.08197 34.255983,9.06392 41.98871,-5.69195 6.431466,-12.1547 6.120458,-27.15517 1.805194,-39.94221 -3.620271,-10.36265 -13.929979,-16.8646 -24.829805,-16.06958 z m -0.839464,22.18693 c -1.97257,1.92945 -0.317929,-0.94032 0.870343,-0.65748 l -0.564212,0.42622 z m 2.597872,24.55103 c -1.882962,1.46352 -0.255218,0.21196 0,0 z"
         id="path5147"
         transform="translate(0,967.36216)"
         inkscape:export-xdpi="190.625"
         inkscape:export-ydpi="190.625" />
      <text
         xml:space="preserve"
         style="font-style:normal;font-variant:normal;font-weight:normal;font-stretch:normal;font-size:85.3333px;line-height:1.25;font-family:Expressway;-inkscape-font-specification:Expressway;fill:#00ffff;fill-opacity:1;stroke:none;"
         x="64.041664"
         y="1186.5704"
         id="text4391"
         inkscape:export-xdpi="190.625"
         inkscape:export-ydpi="190.625"><tspan
           style="font-style:normal;font-variant:normal;font-weight:bold;font-stretch:normal;font-size:85.3333px;font-family:Consolas;-inkscape-font-specification:'Consolas Bold';text-align:center;text-anchor:middle;fill:#00ffff;fill-opacity:1;"
           sodipodi:role="line"
           id="tspan4389"
           x="64.041664"
           y="1186.5704">0</tspan></text>
      <path
         style="opacity:1;fill:#ffffff;fill-opacity:1;stroke:none;stroke-width:0.707107;filter:url(#filter5943)"
         d="m 198.59491,157.9353 c -9.35423,-1.27181 -17.40973,4.08903 -25.21832,8.31996 -5.37656,1.6835 -7.96577,7.93575 -4.77517,12.75954 1.14812,5.25448 6.3893,10.13692 11.90832,7.47431 3.11059,-1.12869 1.01168,5.62837 1.77808,8.00919 -0.19896,2.84898 0.71693,7.1245 -0.22552,9.27918 -5.15236,-0.16807 -12.9707,-0.1199 -13.52782,6.62881 -0.26141,5.20338 -1.39516,13.60041 5.40978,14.91955 11.69678,0.91573 23.62442,0.074 35.40768,0.33137 5.94486,0.74835 9.44396,-5.25269 8.39702,-10.55038 0.77686,-4.90473 -1.23969,-11.05523 -7.01963,-11.23142 -6.30823,2.05624 -5.14767,-3.3816 -5.03333,-7.76968 -0.26018,-10.83356 0.4506,-21.79645 -0.4206,-32.54861 -0.36159,-3.34383 -3.57056,-5.30744 -6.68049,-5.62182 z"
         id="path5149"
         transform="translate(0,967.36216)"
         inkscape:export-xdpi="190.625"
         inkscape:export-ydpi="190.625" />
      <path
         id="path4395"
         d="m 174.97048,1182.0067 0.01,-4.375 6.96513,0.016 6.96513,0.016 -0.0811,-17.5627 c -0.0446,-9.6595 -0.10469,-17.5911 -0.13351,-17.6259 -0.0288,-0.035 -2.72138,1.4089 -5.98346,3.2081 -3.26208,1.7992 -5.96383,3.2276 -6.00388,3.1742 -0.24607,-0.3276 -3.13754,-7.819 -3.05113,-7.9051 0.0583,-0.058 3.9161,-2.1146 8.57283,-4.5701 l 8.46678,-4.4645 4.19412,0.01 4.19411,0.01 -0.0525,22.875 -0.0525,22.8749 5.99998,0.014 5.99999,0.014 -0.01,4.3749 -0.0101,4.375 -17.99995,-0.041 -17.99996,-0.041 z"
         style="fill:#00ffff;fill-opacity:1;stroke-width:0.25"
         inkscape:export-xdpi="190.625"
         inkscape:export-ydpi="190.625" />
      <path
         style="opacity:1;fill:#ffffff;fill-opacity:1;stroke:none;stroke-width:0.707107;filter:url(#filter5947)"
         d="m 318.29716,157.5796 c -7.71373,5e-5 -15.32147,3.68332 -20.87095,8.85618 -4.32228,5.83684 1.32641,12.96072 6.28351,16.12304 4.14213,2.47629 8.23395,-0.39151 11.71005,-2.47534 1.60209,-0.77758 4.54359,-1.19313 3.62793,1.55171 -1.22537,5.96942 -6.94399,9.76428 -10.60148,14.28324 -5.19926,6.30585 -14.39121,11.74128 -13.47845,21.07833 -0.70461,5.50597 4.57946,9.41439 9.75207,8.50721 11.22908,-0.0322 22.49729,0.52226 33.70168,0.33689 7.02333,-1.54543 7.53114,-10.13933 7.08002,-15.94676 -1.07482,-6.42662 -9.02726,-7.16768 -13.58791,-7.09229 7.60447,-7.36192 13.69411,-18.01201 10.80361,-28.88125 -2.48855,-10.87974 -13.84378,-16.94363 -24.42008,-16.34096 z"
         id="path5151"
         transform="translate(0,967.36216)"
         inkscape:export-xdpi="190.625"
         inkscape:export-ydpi="190.625" />
      <path
         id="path4397"
         d="m 301.96878,1182.8916 0.008,-3.5318 7.74983,-7.8151 c 10.61742,-10.7069 13.07123,-13.5635 14.94187,-17.3945 2.08597,-4.2721 1.66609,-9.8811 -0.90221,-12.0523 -1.7981,-1.52 -2.5847,-1.7564 -5.82484,-1.7505 -2.49708,0 -3.23687,0.099 -4.41276,0.5606 -1.54045,0.6053 -4.11639,2.18 -5.41736,3.3117 -0.45257,0.3937 -0.90956,0.7157 -1.01554,0.7154 -0.10598,-2e-4 -1.32902,-1.4611 -2.71787,-3.2463 l -2.52517,-3.246 1.17376,-0.9747 c 5.4989,-4.5663 11.98001,-6.6389 18.71554,-5.9851 7.64998,0.7426 12.53659,4.4194 14.47861,10.894 0.60911,2.0308 0.60094,7.2692 -0.0152,9.75 -0.61006,2.4562 -2.60377,6.3508 -4.58303,8.9528 -1.7187,2.2594 -6.64815,7.3418 -12.57814,12.9684 l -3.32702,3.1568 11.50724,0.026 11.50723,0.027 -0.0106,4.6249 -0.0106,4.625 -18.37495,-0.042 -18.37495,-0.042 z"
         style="fill:#00ffff;fill-opacity:1;stroke-width:0.25"
         inkscape:export-xdpi="190.625"
         inkscape:export-ydpi="190.625" />
      <path
         style="opacity:1;fill:#ffffff;fill-opacity:1;stroke:none;stroke-width:0.707107;filter:url(#filter5951)"
         d="m 444.96204,157.61816 c -5.9875,0.38777 -13.016,0.15168 -17.77129,4.17857 -2.98309,4.32967 -2.38925,10.32676 -1.51699,15.26775 2.54469,4.73802 7.97429,3.80464 12.31292,2.85457 2.71547,0.0206 6.91029,-1.09812 8.88536,-0.2581 -4.94176,2.56106 -12.80945,-0.94445 -15.46368,5.44695 -1.88763,5.77773 -0.98509,14.77249 6.31181,16.0704 3.77098,1.35875 8.62344,-0.27228 11.91477,1.80287 -0.42998,2.39096 -4.30868,1.30916 -6.04883,1.77938 -6.27304,0.67989 -14.09595,-2.87289 -18.80425,2.69035 -1.80853,4.71759 -1.51344,10.1613 -0.17633,14.96143 4.24692,5.40891 12.00838,3.6537 18.05638,3.87298 8.95577,-0.14096 18.58082,-1.73245 24.9614,-8.6455 7.9395,-7.51003 7.85067,-21.76177 -0.54192,-28.90211 4.91786,-6.86922 4.80586,-16.85044 -0.96735,-23.2252 -4.98426,-6.45368 -13.37886,-8.36526 -21.152,-7.89434 z"
         id="path5153"
         transform="translate(0,967.36216)"
         inkscape:export-xdpi="190.625"
         inkscape:export-ydpi="190.625" />
      <path
         id="path4399"
         d="m 434.97902,1186.9809 c -1.29538,-0.1175 -2.84187,-0.2877 -3.43664,-0.3783 l -1.08141,-0.1647 0.01,-4.2666 0.01,-4.2666 1.06211,0.1733 c 3.64727,0.5951 5.63806,0.7416 10.43576,0.7682 5.94243,0.033 7.24649,-0.171 10.18069,-1.5925 2.81124,-1.362 4.19131,-3.7094 4.17453,-7.1008 -0.0144,-2.9179 -1.24709,-4.8282 -4.01765,-6.2264 -2.36714,-1.1945 -4.06253,-1.4721 -9.86209,-1.6145 l -5.43721,-0.1335 0.008,-3.687 0.008,-3.687 4.56282,-0.1347 c 4.80965,-0.1419 6.17933,-0.3841 8.3159,-1.4707 2.51999,-1.2816 3.72344,-3.346 3.74684,-6.4274 0.0167,-2.2038 -0.36578,-3.4677 -1.41165,-4.6644 -1.54422,-1.7669 -3.59012,-2.3934 -7.8128,-2.3924 -3.27708,7e-4 -6.12876,0.4033 -9.82518,1.3871 -1.28259,0.3413 -2.43636,0.6204 -2.56393,0.6201 -0.13312,-3e-4 -0.22798,-1.7355 -0.22261,-4.0721 l 0.009,-4.0715 2.43904,-0.6663 c 6.8635,-1.8749 14.01848,-2.1017 19.35622,-0.6135 7.09927,1.9793 10.92967,7.188 10.293,13.9966 -0.45177,4.8313 -2.63305,8.1451 -6.75725,10.2657 -0.8986,0.462 -1.63437,0.8983 -1.63504,0.9695 -6.6e-4,0.071 0.74676,0.3274 1.66096,0.5694 2.36544,0.6262 4.6242,1.8156 6.0424,3.1816 2.55153,2.4576 3.60125,5.0537 3.59698,8.8955 -0.005,4.6378 -1.29719,7.8802 -4.3313,10.8699 -2.88918,2.8468 -6.76223,4.6246 -12.24417,5.6203 -2.5284,0.4593 -11.61197,0.6458 -15.27421,0.3137 z"
         style="fill:#00ffff;fill-opacity:1;stroke-width:0.25"
         inkscape:export-xdpi="190.625"
         inkscape:export-ydpi="190.625" />
      <path
         style="opacity:1;fill:#ffffff;fill-opacity:1;stroke:none;stroke-width:0.707107;filter:url(#filter5955)"
         d="m 572.35002,158.94404 c -6.3599,6.90704 -10.16499,15.85107 -15.41925,23.63743 -4.68662,8.17512 -12.02557,16.84727 -8.98981,26.94519 1.99992,6.69563 10.34412,4.64762 15.65302,4.92496 3.41855,0.84322 11.0464,-2.53712 9.26879,3.51986 -0.37316,5.71052 5.52304,8.69333 10.5493,7.76035 4.84533,0.48304 11.90036,-0.0896 12.44066,-6.23822 0.11117,-3.36301 -0.34834,-5.95907 3.71203,-6.19662 5.11779,-2.58486 4.20152,-9.03675 4.89572,-13.73186 0.3287,-4.38599 -4.35728,-7.54775 -8.44689,-6.9478 -0.37016,-9.87589 0.68248,-19.9413 -0.59857,-29.69585 -2.06084,-6.75949 -10.45731,-4.61776 -15.84499,-4.92463 -2.51896,-0.17728 -4.83371,0.0976 -7.22001,0.94719 z"
         id="path5155"
         transform="translate(0,967.36216)"
         inkscape:export-xdpi="190.625"
         inkscape:export-ydpi="190.625" />
      <path
         id="path4401"
         d="m 579.724,1180.9364 0.0129,-5.625 -12.74997,-0.029 -12.74996,-0.029 0.01,-4.1623 0.01,-4.1623 10.60229,-17.3103 10.60229,-17.3104 6.93748,0.013 6.93749,0.013 -0.0393,17.1249 -0.0393,17.125 4.12499,0.01 4.12499,0.01 -0.01,4.3749 -0.0101,4.375 -4.12499,-0.01 -4.12499,-0.01 -0.0126,5.4639 -0.0126,5.4638 -1.68786,0.1555 c -0.92832,0.085 -3.06598,0.1531 -4.75036,0.1502 l -3.06249,-0.01 z m 0.0616,-26.8035 c 0.0244,-10.6332 -0.0219,-12.3758 -0.32063,-12.0633 -0.25613,0.268 -13.9868,21.9325 -15.30178,24.1435 -0.14689,0.247 1.4604,0.3159 7.70412,0.3302 l 7.88974,0.018 z"
         style="fill:#00ffff;fill-opacity:1;stroke-width:0.25"
         inkscape:export-xdpi="190.625"
         inkscape:export-ydpi="190.625" />
      <path
         style="opacity:1;fill:#ffffff;fill-opacity:1;stroke:none;stroke-width:0.707107;filter:url(#filter5959)"
         d="m 718.40415,157.58947 c -10.59021,1.52461 -21.31493,0.17494 -31.79885,1.48282 -6.69075,2.00419 -4.64379,10.34394 -4.92106,15.65205 0.45507,7.20912 -0.98181,14.67025 0.97164,21.67977 4.30109,5.64823 12.16123,2.94553 18.1501,4.13186 1.81781,-0.33298 5.48809,0.82383 3.69947,3.02243 -4.56766,2.08897 -10.09577,0.16016 -14.97109,0.6315 -5.76553,-1.14827 -10.29849,4.27258 -9.19798,9.7812 -0.83269,5.442 2.39858,11.76985 8.46939,11.82835 11.47727,1.01079 24.74795,0.9336 33.33516,-8.00442 10.59711,-9.76139 8.33033,-29.89329 -5.32368,-35.73446 -5.63174,-1.91867 1.26718,-0.51224 3.64933,-1.47384 6.63993,-1.14004 5.73143,-9.11533 5.61053,-14.17139 0.48496,-4.72651 -2.70748,-9.01484 -7.67296,-8.82587 z"
         id="path5157"
         transform="translate(0,967.36216)"
         inkscape:export-xdpi="190.625"
         inkscape:export-ydpi="190.625" />
      <path
         id="path4403"
         d="m 694.71001,1187.1576 c -1.69912,-0.1256 -6.03205,-0.6181 -6.81074,-0.7741 l -0.68719,-0.1377 0.01,-4.25 0.01,-4.25 0.81211,0.1717 c 4.45757,0.942 12.3052,1.2103 15.61783,0.534 5.96837,-1.2185 9.10994,-5.6832 7.75537,-11.0216 -1.3379,-5.2726 -5.43812,-6.732 -18.04336,-6.4223 l -5.02181,0.1235 -0.15117,-6.451 c -0.0831,-3.5481 -0.14294,-10.0328 -0.13289,-14.4105 l 0.0183,-7.9594 6.43749,0.014 c 3.54061,0.01 10.57202,-0.05 15.62534,-0.1297 l 9.18785,-0.144 -0.011,4.7905 -0.011,4.7905 -10.99997,-0.025 -10.99997,-0.025 -0.009,4.0883 c -0.005,2.2486 0.0613,4.78 0.1477,5.6254 l 0.15708,1.537 2.56289,0.01 c 8.83005,0.02 14.78216,1.8249 18.3503,5.5635 4.13852,4.3363 5.00075,12.7379 1.90494,18.5616 -1.09703,2.0637 -4.33334,5.2995 -6.58487,6.5839 -5.13763,2.9308 -11.66578,4.1627 -19.13334,3.6106 z"
         style="fill:#00ffff;fill-opacity:1;stroke-width:0.25"
         inkscape:export-xdpi="190.625"
         inkscape:export-ydpi="190.625" />
      <path
         style="opacity:1;fill:#ffffff;fill-opacity:1;stroke:none;stroke-width:0.707107;filter:url(#filter5963)"
         d="m 846.71189,158.07548 c -12.17945,0.0289 -26.33389,1.78597 -33.95862,12.55472 -7.44159,10.78407 -7.74984,25.03635 -5.06599,37.43418 2.67806,12.16758 15.55787,20.76204 27.82285,18.16562 12.36075,-0.55918 23.99526,-11.69851 22.78181,-24.47152 0.76716,-9.14252 -4.76748,-18.29824 -13.66594,-21.09345 -4.78889,-1.37608 4.6327,0.0474 5.87381,-1.55362 5.08986,-3.56537 3.72449,-10.82775 3.00969,-16.10429 -0.56831,-3.08875 -3.89941,-4.76659 -6.79761,-4.93164 z m -12.22921,42.57144 c 1.63124,2.25115 -0.39181,5.49026 -3.15325,3.92619 -1.74719,-2.83318 -0.50401,-4.53688 2.72908,-3.96049 0.14823,-0.007 0.35038,-0.12201 0.42417,0.0343 z"
         id="path5159"
         transform="translate(0,967.36216)"
         inkscape:export-xdpi="190.625"
         inkscape:export-ydpi="190.625" />
      <path
         id="path4405"
         d="m 827.83565,1187.0298 c -10.71069,-2.1035 -15.57431,-10.6419 -14.98538,-26.308 0.2686,-7.145 1.15523,-11.3395 3.32766,-15.7424 0.74545,-1.5107 1.85411,-3.3704 2.4637,-4.1326 2.48005,-3.1008 6.12335,-5.4598 10.56582,-6.8412 4.07869,-1.2683 6.58142,-1.6136 12.81659,-1.7683 l 5.56283,-0.138 -0.01,4.2603 -0.01,4.2603 -6.06277,0.1124 c -6.58026,0.122 -7.89521,0.3209 -10.81131,1.6351 -2.97058,1.3387 -5.2495,4.0832 -6.23279,7.5061 -0.35812,1.2466 -0.94375,5.0251 -0.80471,5.1919 0.0316,0.038 0.59481,-0.16 1.25162,-0.4397 3.49195,-1.4873 8.31027,-2.1686 12.26266,-1.7339 7.98387,0.8781 12.62644,4.5673 14.34149,11.3963 0.67494,2.6875 0.67345,7.083 -0.003,9.704 -1.63961,6.35 -6.39221,10.9057 -13.24712,12.6982 -2.49674,0.6529 -7.92896,0.8298 -10.42543,0.3395 z m 8.39454,-8.4966 c 3.44817,-1.2266 5.51448,-4.4954 5.51709,-8.7278 0.003,-4.963 -2.22656,-7.8274 -6.7429,-8.6625 -2.78287,-0.5145 -7.4149,0.3071 -10.50292,1.863 -1.40833,0.7096 -1.34823,0.4388 -0.99675,4.4904 0.25391,2.927 0.9327,5.7997 1.7521,7.415 1.01722,2.0053 2.98198,3.4831 5.28935,3.9784 1.44314,0.3098 4.31777,0.1295 5.68403,-0.3565 z"
         style="fill:#00ffff;fill-opacity:1;stroke-width:0.25"
         inkscape:export-xdpi="190.625"
         inkscape:export-ydpi="190.625" />
      <path
         style="opacity:1;fill:#ffffff;fill-opacity:1;stroke:none;stroke-width:0.707107;filter:url(#filter5967)"
         d="m 937.60171,159.03356 c -5.13167,3.62278 -3.26518,10.6293 -3.29679,15.94671 0.5792,6.54173 8.16454,6.77097 13.19248,6.29526 2.63382,0.84451 11.33694,-2.13201 7.91439,2.54187 -5.10335,11.1561 -11.17283,21.97383 -15.74973,33.33777 -1.85386,5.88913 4.89525,9.8863 10.11208,8.6643 5.28216,0.38883 12.24195,0.31523 13.99754,-5.89854 6.8279,-15.11185 15.13479,-29.62816 20.71753,-45.26527 0.9998,-5.24281 3.17557,-13.10505 -2.93257,-15.80384 -6.53109,-1.90532 -13.69381,-0.26761 -20.46872,-0.79295 -7.77765,0.48221 -15.92481,-1.00583 -23.48621,0.97469 z"
         id="path5161"
         transform="translate(0,967.36216)"
         inkscape:export-xdpi="190.625"
         inkscape:export-ydpi="190.625" />
      <path
         id="path4407"
         d="m 946.31543,1185.0909 c 0.3282,-0.7211 5.13081,-10.6318 10.67246,-22.0237 5.54166,-11.3919 10.07595,-20.8034 10.0762,-20.9144 2.6e-4,-0.111 -5.84952,-0.2153 -12.9995,-0.2317 l -12.99996,-0.03 0.0112,-4.875 0.0112,-4.875 18.74995,0.043 18.74995,0.043 -0.008,4.4375 -0.008,4.4375 -10.86627,22.6604 -10.86627,22.6604 -5.55934,-0.011 -5.55934,-0.011 0.59673,-1.3111 z"
         style="fill:#00ffff;fill-opacity:1;stroke-width:0.25"
         inkscape:export-xdpi="190.625"
         inkscape:export-ydpi="190.625" />
      <path
         style="opacity:1;fill:#ffffff;fill-opacity:1;stroke:none;stroke-width:0.707107;filter:url(#filter5971)"
         d="m 1086.9412,157.57676 c -11.888,-0.74568 -24.272,8.91971 -23.3935,21.45718 0.2218,4.58 2.1531,9.00063 5.1655,12.43195 -8.1947,7.92338 -8.7107,23.22365 1.2618,29.92979 10.2282,7.272 25.2046,6.84284 35.467,-0.1166 10.0478,-7.07756 10.7401,-22.92361 1.8669,-31.22638 8.7159,-9.0152 5.6699,-26.5188 -6.8036,-30.4839 -4.3015,-1.67342 -8.9834,-2.09277 -13.5641,-1.99204 z m 1.3456,20.63781 c 2.2135,0.20776 -1.1716,0.89013 -0.2569,-9.5e-4 z m -0.7282,25.14637 c 3.907,1.66063 1.0856,1.99772 -1.4887,1.67637 -0.5099,-0.24019 1.1068,-2.25326 1.4887,-1.67637 z"
         id="path5163"
         transform="translate(0,967.36216)"
         inkscape:export-xdpi="190.625"
         inkscape:export-ydpi="190.625" />
      <path
         id="path4409"
         d="m 1083.711,1187.1879 c -7.9803,-0.9392 -13.2178,-4.7513 -14.4826,-10.5413 -0.4417,-2.0219 -0.1869,-5.9567 0.5016,-7.7462 1.2163,-3.1611 3.6057,-5.9365 7.2057,-8.3698 1.1493,-0.7769 2.0899,-1.4809 2.0901,-1.5644 2e-4,-0.084 -0.7579,-0.6481 -1.6847,-1.2545 -3.7479,-2.4526 -6.4245,-6.1053 -7.0704,-9.6486 -0.357,-1.9587 -0.1147,-5.1215 0.5347,-6.9786 1.4806,-4.2345 5.2512,-7.4724 10.3266,-8.8676 5.6321,-1.5482 13.3968,-0.9663 18.1551,1.3607 4.647,2.2726 7.1829,6.9283 6.5296,11.9878 -0.5826,4.5119 -2.7611,7.8104 -7.2227,10.9362 -0.8608,0.603 -1.5613,1.1586 -1.5566,1.2347 0,0.076 0.9588,0.7502 2.1204,1.498 3.4671,2.2322 5.6873,4.7781 7.0079,8.0363 0.5222,1.2882 0.6828,2.1735 0.772,4.2564 0.1366,3.1866 -0.1872,4.8985 -1.3715,7.2522 -3.1164,6.1939 -11.914,9.5787 -21.8552,8.4087 z m 8.5654,-8.1932 c 3.0842,-0.9448 4.6967,-2.9977 4.7092,-5.9952 0.015,-3.5159 -2.2098,-6.0438 -7.9414,-9.0244 l -2.0925,-1.0883 -1.0312,0.5461 c -3.1268,1.6558 -5.6724,4.2818 -6.5386,6.7451 -0.5323,1.5136 -0.4947,4.1535 0.077,5.4202 0.6367,1.4103 2.328,2.7856 4.1369,3.3639 2.1467,0.6863 6.4933,0.7027 8.6804,0.033 z m -0.9526,-26.4054 c 3.171,-2.0976 4.9774,-4.9197 4.9843,-7.7869 0.01,-2.5954 -0.897,-3.9683 -3.363,-5.1114 -1.1215,-0.5198 -1.6179,-0.5796 -4.8737,-0.5871 -3.2538,-0.01 -3.7528,0.05 -4.8732,0.5636 -2.406,1.1022 -3.384,2.5761 -3.3898,5.1084 0,2.04 0.8367,3.807 2.5057,5.2618 1.4303,1.2469 6.4432,3.993 6.9513,3.8081 0.1943,-0.071 1.1205,-0.6361 2.0584,-1.2565 z"
         style="fill:#00ffff;fill-opacity:1;stroke-width:0.25"
         inkscape:export-xdpi="190.625"
         inkscape:export-ydpi="190.625" />
      <path
         style="opacity:1;fill:#ffffff;fill-opacity:1;stroke:none;stroke-width:0.707107;filter:url(#filter5975)"
         d="m 1213.7968,157.64952 c -11.8022,0.12612 -23.9786,9.27287 -24.2577,21.7252 -1.3417,9.45036 2.8994,20.07831 12.2859,23.63143 3.751,1.49044 -5.7999,-0.12041 -6.736,2.3433 -4.2858,3.67978 -2.7163,10.24068 -2.4299,15.18305 1.052,6.44689 8.7583,5.88636 13.6734,5.16253 11.188,-0.17328 23.6404,-3.62838 29.6737,-13.87331 6.3997,-11.09656 6.8513,-25.04825 3.5442,-37.1999 -3.2009,-11.15691 -14.2601,-18.26793 -25.7536,-16.9723 z m 1.0666,21.4766 c 2.4813,-0.54175 3.3913,4.74023 1.2671,4.4739 -1.7332,0.56298 -4.2138,-0.21359 -3.3285,-2.50792 0.029,-1.23846 0.6994,-2.24525 2.0614,-1.96598 z"
         id="path5165"
         transform="translate(0,967.36216)"
         inkscape:export-xdpi="190.625"
         inkscape:export-ydpi="190.625" />
      <path
         id="path4411"
         d="m 1198.9726,1182.2717 0.01,-4.2879 4.6875,0.01 c 9.1609,0.017 13.4931,-0.993 16.5776,-3.8648 2.0129,-1.8743 3.3688,-5.2313 3.854,-9.5423 0.1052,-0.9347 0.065,-1.0579 -0.295,-0.9115 -4.7596,1.9347 -9.275,2.624 -13.671,2.0869 -8.8512,-1.0813 -13.6271,-5.739 -14.2993,-13.9452 -0.7073,-8.6353 2.6658,-14.9041 9.8735,-18.3497 3.2857,-1.5707 5.4263,-2.0219 9.6297,-2.0294 6.8229,-0.012 11.0691,1.6881 14.4908,5.8029 2.2862,2.7493 3.8195,6.4602 4.6383,11.2258 0.5736,3.339 0.5583,12.384 -0.027,15.975 -1.5904,9.7555 -5.5977,15.7482 -12.7608,19.0832 -4.3392,2.0202 -8.2299,2.6915 -16.7801,2.8949 l -5.9378,0.1412 z m 20.4327,-25.1285 c 0.8255,-0.2226 2.291,-0.7668 3.2566,-1.2095 l 1.7557,-0.8048 -0.1724,-3.1062 c -0.4768,-8.5923 -3.2968,-12.3316 -9.2897,-12.3182 -5.5234,0.012 -8.8933,3.5293 -8.9065,9.2955 -0.01,4.5723 1.9653,7.43 5.8265,8.4272 1.6081,0.4153 5.4775,0.2694 7.5298,-0.284 z"
         style="fill:#00ffff;fill-opacity:1;stroke-width:0.25"
         inkscape:export-xdpi="190.625"
         inkscape:export-ydpi="190.625" />
      <path
         style="opacity:1;fill:#ffffff;fill-opacity:1;stroke:none;stroke-width:0.707107;filter:url(#filter5979)"
         d="m 1348.0441,169.36464 c -5.2499,0.32924 -13.3976,-0.54492 -14.5114,6.30354 -1.4776,2.93242 1.6283,9.73733 -2.0918,10.04878 -5.165,-0.28587 -13.1311,-0.58132 -13.8313,6.24057 -0.2719,5.09156 -1.5658,13.06769 4.6712,14.97822 3.222,1.65628 8.5926,-0.69352 10.7063,1.26518 -0.01,5.12287 -1.1652,13.27034 5.5592,14.51906 4.4945,0.46185 9.9277,0.69754 13.875,-1.70653 4.0484,-3.29546 2.4038,-9.01339 2.9158,-13.55743 5.3365,-0.13643 13.8986,1.46775 15.291,-5.56055 0.553,-5.08285 1.6695,-11.85913 -3.1218,-15.29347 -3.8576,-1.57217 -8.0316,-0.73527 -12.0707,-0.92562 -0.3408,-5.34054 1.757,-13.66663 -4.8788,-15.7495 -0.8411,-0.12828 -1.6502,-0.6275 -2.5127,-0.56225 z"
         id="path5167"
         transform="translate(0,967.36216)"
         inkscape:export-xdpi="190.625"
         inkscape:export-ydpi="190.625" />
      <path
         id="path4413"
         d="m 1339.4872,1176.0565 0.018,-7.9999 -7.75,-0.018 -7.75,-0.018 0.01,-4.125 0.01,-4.125 7.7499,0.018 7.75,0.018 0.018,-7.9629 0.018,-7.963 2.0629,-0.1558 c 1.1345,-0.086 3.1597,-0.154 4.5003,-0.1517 h 2.4375 l -0.019,8.125 -0.019,8.1249 7.75,0.018 7.75,0.018 -0.01,4 -0.01,4 -7.1875,-0.013 c -3.9531,-0.01 -7.4408,0.054 -7.7503,0.1364 l -0.5629,0.1494 -0.018,7.9709 -0.018,7.9708 -4.5,-0.01 -4.5,-0.01 0.018,-8 z"
         style="fill:#00ffff;fill-opacity:1;stroke-width:0.25"
         inkscape:export-xdpi="190.625"
         inkscape:export-ydpi="190.625" />
      <path
         style="opacity:1;fill:#ffffff;fill-opacity:1;stroke:none;stroke-width:0.707107;filter:url(#filter5983)"
         d="m 1455.958,186.4414 c -5.0335,3.60745 -3.4795,10.66102 -3.114,15.92237 1.1771,6.74149 9.3155,5.69804 14.4227,5.61011 6.8064,-0.43319 13.8546,0.94905 20.4631,-0.96959 5.0335,-3.60744 3.4795,-10.66101 3.114,-15.92236 -1.177,-6.74149 -9.3154,-5.69804 -14.4227,-5.61011 -6.7804,0.43249 -13.8966,-0.94786 -20.4631,0.96958 z"
         id="path5169"
         transform="translate(0,967.36216)"
         inkscape:export-xdpi="190.625"
         inkscape:export-ydpi="190.625" />
      <path
         id="path4415"
         d="m 1459.2652,1163.9969 0.01,-4.3348 7.3128,-0.148 c 4.0221,-0.081 9.7598,-0.1426 12.7504,-0.136 l 5.4375,0.012 -0.01,4.5 -0.01,4.4999 -12.75,-0.029 -12.75,-0.029 z"
         style="fill:#00ffff;fill-opacity:1;stroke-width:0.25"
         inkscape:export-xdpi="190.625"
         inkscape:export-ydpi="190.625" />
    </g>
  </g>
</svg>
