<?xml version="1.0" encoding="UTF-8" standalone="no"?>
<svg
   xmlns:dc="http://purl.org/dc/elements/1.1/"
   xmlns:cc="http://creativecommons.org/ns#"
   xmlns:rdf="http://www.w3.org/1999/02/22-rdf-syntax-ns#"
   xmlns:svg="http://www.w3.org/2000/svg"
   xmlns="http://www.w3.org/2000/svg"
   xmlns:sodipodi="http://sodipodi.sourceforge.net/DTD/sodipodi-0.dtd"
   xmlns:inkscape="http://www.inkscape.org/namespaces/inkscape"
   width="1152"
   height="256"
   viewBox="0 0 1152 256"
   id="svg2"
   version="1.1"
   inkscape:version="1.0 (4035a4fb49, 2020-05-01)"
   sodipodi:docname="grab-tech.svg"
   inkscape:export-filename="C:\PROGRAMMING\Git\tekken-overlay\assets\textures\frame-text-back-0.png"
   inkscape:export-xdpi="95.25"
   inkscape:export-ydpi="95.25">
  <defs
     id="defs4" />
  <sodipodi:namedview
     id="base"
     pagecolor="#2c2c2c"
     bordercolor="#666666"
     borderopacity="1.0"
     inkscape:pageopacity="0"
     inkscape:pageshadow="2"
     inkscape:zoom="1.0000001"
     inkscape:cx="580.10552"
     inkscape:cy="158.0686"
     inkscape:document-units="px"
     inkscape:current-layer="layer1"
     showgrid="true"
     units="px"
     inkscape:snap-bbox="true"
     inkscape:bbox-paths="true"
     inkscape:bbox-nodes="true"
     inkscape:snap-bbox-edge-midpoints="true"
     inkscape:snap-bbox-midpoints="true"
     inkscape:object-paths="true"
     inkscape:snap-intersection-paths="true"
     inkscape:object-nodes="true"
     inkscape:snap-smooth-nodes="false"
     inkscape:snap-midpoints="true"
     inkscape:snap-object-midpoints="true"
     inkscape:snap-center="true"
     inkscape:snap-text-baseline="true"
     inkscape:snap-page="true"
     inkscape:window-width="1723"
     inkscape:window-height="874"
     inkscape:window-x="107"
     inkscape:window-y="129"
     inkscape:window-maximized="0"
     showguides="true"
     inkscape:guide-bbox="true"
     inkscape:snap-grids="true"
     inkscape:snap-to-guides="true"
     inkscape:document-rotation="0"
     guidecolor="#00ff00"
     guideopacity="0.49803922"
     guidehicolor="#ff00ff"
     guidehiopacity="0.49803922">
    <inkscape:grid
       empopacity="0.25098039"
       empcolor="#656565"
       opacity="0.1254902"
       color="#4c4c4c"
       type="xygrid"
       id="grid4684"
       spacingx="4"
       spacingy="4"
       empspacing="4" />
  </sodipodi:namedview>
  <metadata
     id="metadata7">
    <rdf:RDF>
      <cc:Work
         rdf:about="">
        <dc:format>image/svg+xml</dc:format>
        <dc:type
           rdf:resource="http://purl.org/dc/dcmitype/StillImage" />
        <dc:title></dc:title>
      </cc:Work>
    </rdf:RDF>
  </metadata>
  <g
     inkscape:label="Layer 1"
     inkscape:groupmode="layer"
     id="layer1"
     transform="translate(0,-967.36216)">
    <text
       xml:space="preserve"
       style="font-style:normal;font-weight:normal;font-size:40px;line-height:1.25;font-family:sans-serif;fill:#000000;fill-opacity:1;stroke:none"
       x="-16"
       y="923.36218"
       id="text864"><tspan
         sodipodi:role="line"
         id="tspan862"
         x="-16"
         y="923.36218" /></text>
    <g
       inkscape:export-ydpi="95.25"
       inkscape:export-xdpi="95.25"
       id="g1048">
      <path
         style="fill:#000000"
         d="M 80.016727,10.905139 C 57.163127,23.061211 34.084777,34.813061 11.442511,47.356309 3.6883019,52.489381 5.6662489,62.380238 9.0499334,69.475448 13.361524,79.06679 15.869153,90.13351 23.118767,97.983835 c 8.988513,7.062835 18.848829,-1.849895 27.049896,-5.758258 5.279723,-2.881954 10.54235,-5.795173 15.810954,-8.697395 0.214257,36.349848 0.112044,72.700528 0.136719,109.050778 -15.278824,0.45718 -30.776978,-0.92523 -45.9159,0.70534 -9.696731,1.97308 -9.636335,13.42234 -9.084097,21.29466 0.860526,10.33454 -1.9993471,21.55384 1.979441,31.23954 6.576238,9.36188 19.382594,4.59693 29.020558,5.76045 41.981318,-0.15667 84.037352,0.31339 125.971962,-0.23511 9.30932,-0.59373 12.29241,-10.88142 11.02803,-18.76488 -0.62808,-11.13863 1.41487,-22.59572 -1.32617,-33.48242 -6.1502,-9.94851 -19.01928,-5.57111 -28.67383,-6.51758 -5.6803,-0.65303 -13.98176,1.31509 -18,-1 C 130.95911,134.59771 131.43008,77.541557 130.88122,20.606999 130.28749,11.297677 119.9998,8.3145874 112.11633,9.5789673 101.45286,10.175744 90.42032,8.2137964 80.016727,10.905139 Z"
         id="path1035"
         transform="translate(0,967.36216)" />
      <text
         xml:space="preserve"
         style="font-style:normal;font-weight:normal;font-size:40px;line-height:1.25;font-family:sans-serif;fill:#000000;fill-opacity:1;stroke:none"
         x="91.25"
         y="1207.3622"
         id="text983"><tspan
           sodipodi:role="line"
           id="tspan981"
           x="91.25"
           y="1207.3622"
           style="font-style:normal;font-variant:normal;font-weight:bold;font-stretch:normal;font-size:341.333px;font-family:Consolas;-inkscape-font-specification:Consolas;text-align:center;text-anchor:middle;fill:#ffffff">1</tspan></text>
    </g>
    <g
       inkscape:export-ydpi="95.25"
       inkscape:export-xdpi="95.25"
       id="g1053">
      <path
         style="fill:#000000"
         d="m 380.16124,7.1668584 c -24.67842,-0.2046039 -48.78083,8.7347576 -68.25279,23.7200186 -7.30821,4.70189 -16.31279,12.905055 -11.40703,22.45418 7.1667,10.493517 14.63237,21.158556 23.81803,29.966422 8.35067,5.435069 16.65468,-1.387774 22.89392,-6.643893 9.82522,-7.565915 22.26448,-12.004989 34.68811,-9.436184 9.32869,0.758364 13.41382,10.7971 13.0039,19.041014 0.57086,20.883444 -15.59773,36.459524 -28.4707,50.900384 -20.72234,22.19545 -43.19257,43.26603 -64.31148,65.25113 -5.66759,8.23694 -1.93305,19.01653 -3.00688,28.40317 -0.75834,7.89182 0.20963,18.51887 9.64618,20.38639 39.51471,0.862 79.25313,0.12326 118.85382,0.36946 11.96758,-0.66485 24.26815,1.46325 35.98241,-1.32617 10.06602,-6.28441 5.50636,-19.37184 6.51758,-29.17382 -1.05593,-9.50107 3.4259,-22.37446 -5.93861,-28.62923 -9.41003,-3.86721 -20.09979,-0.97815 -30.06138,-1.87077 -12.79297,0 -25.58594,0 -38.37891,0 24.67529,-24.19622 52.55829,-48.53389 62.85938,-82.78515 3.8855,-15.592329 4.11957,-32.305195 0.67772,-47.990236 C 452.82737,35.406866 432.08203,16.339737 407.74327,10.473498 398.74791,8.1592435 389.44376,7.1113514 380.16124,7.1668584 Z"
         id="path1037"
         transform="translate(0,967.36216)" />
      <text
         id="text991"
         y="1207.3622"
         x="383.08334"
         style="font-style:normal;font-weight:normal;font-size:341.333px;line-height:1.25;font-family:sans-serif;fill:#000000;fill-opacity:1;stroke:none"
         xml:space="preserve"><tspan
           style="font-style:normal;font-variant:normal;font-weight:bold;font-stretch:normal;font-size:341.333px;font-family:Consolas;-inkscape-font-specification:Consolas;text-align:center;text-anchor:middle;fill:#ffffff"
           y="1207.3622"
           x="383.08334"
           id="tspan989"
           sodipodi:role="line">2</tspan></text>
    </g>
    <g
       inkscape:export-ydpi="95.25"
       inkscape:export-xdpi="95.25"
       id="g1060">
      <path
         style="fill:#000000"
         d="M 672.50888,10.905139 C 649.245,23.588351 625.14955,34.92857 602.54404,48.721543 c -8.13804,7.938219 -1.17697,18.793205 1.67758,27.409492 4.46364,8.585984 5.05054,21.195532 15.31461,24.985035 10.39911,0.92892 18.45655,-7.433864 27.5222,-11.297263 3.31132,-0.300088 11.84556,-9.504042 11.95206,-4.316074 0.18988,35.691667 0.0717,71.384197 0.10581,107.076227 -15.61352,0.44574 -31.44149,-0.9072 -46.9159,0.70534 -9.69673,1.97308 -9.63633,13.42234 -9.08409,21.29466 0.86052,10.33454 -1.99935,21.55384 1.97944,31.23954 6.57624,9.36188 19.38259,4.59693 29.02056,5.76045 41.98131,-0.15667 84.03735,0.31339 125.97196,-0.23511 9.30932,-0.59373 12.29241,-10.88142 11.02803,-18.76488 -0.62808,-11.13863 1.41487,-22.59572 -1.32617,-33.48242 -6.1502,-9.94851 -19.01928,-5.57111 -28.67383,-6.51758 -5.31348,-0.68652 -13.37782,1.37782 -17,-1 C 723.95908,134.59771 724.43005,77.541557 723.88119,20.606999 723.28746,11.297677 712.99977,8.3145874 705.1163,9.5789673 694.30414,10.210632 683.04712,8.1531944 672.50888,10.905139 Z"
         id="path1039"
         transform="translate(0,967.36216)" />
      <path
         style="fill:#000000"
         d="m 847.63387,57.905137 c -9.94851,6.150201 -5.5711,19.019281 -6.51758,28.673826 0,11.333332 0,22.666667 0,33.999997 -17.61292,0.45074 -35.44231,-0.91404 -52.9159,0.70534 -9.69673,1.97308 -9.63633,13.42234 -9.08409,21.29466 0.80687,9.67485 -1.91869,20.21019 1.97944,29.23955 6.57624,9.36188 19.38259,4.59693 29.02056,5.76045 10.33333,0 20.66666,0 30.99999,0 0.31501,18.29578 -0.6292,36.74169 0.47023,54.94394 1.2202,9.84397 12.58167,10.94234 20.52977,10.05605 11.13902,-0.6248 22.59549,1.41294 33.48242,-1.32617 9.94851,-6.1502 5.57111,-19.01927 6.51758,-28.67382 0,-11.66667 0,-23.33333 0,-35 17.61293,-0.45074 35.44231,0.91404 52.9159,-0.70534 9.69673,-1.97308 9.63634,-13.42234 9.0841,-21.29466 -0.80687,-9.67485 1.91869,-20.21019 -1.97944,-29.23955 -6.57624,-9.36188 -19.3826,-4.59693 -29.02056,-5.76045 -10.33333,0 -20.66667,0 -31,0 -0.30814,-17.96326 0.61977,-36.073891 -0.47023,-53.943931 -1.22019,-9.843981 -12.58167,-10.942351 -20.52977,-10.056064 -11.10528,0.624148 -22.64936,-1.411844 -33.48242,1.326172 z"
         id="path1041"
         transform="translate(0,967.36216)" />
      <path
         style="fill:#000000"
         d="m 1054.3682,7.2977174 c -25.3098,-0.236775 -49.8,10.7659406 -69.25973,26.4003896 -6.58407,4.748002 -13.03248,13.042549 -7.82812,21.140624 7.85396,9.247257 14.34855,19.885901 23.28905,28.093748 10.3627,6.103504 19.3643,-3.996682 27.5176,-9.109374 10.8002,-6.910921 26.3026,-10.744229 37.748,-3.371094 9.3808,9.258459 6.1469,24.586559 1.1914,35.316409 -10.4293,20.30202 -27.919,34.85691 -43.2449,51.4196 -14.9152,15.53369 -30.88545,30.22416 -45.21355,46.20875 -4.82529,8.14383 -1.44462,18.4059 -2.45166,27.46539 -0.76337,7.88208 0.22887,18.48475 9.64618,20.34733 39.34803,0.86202 78.91983,0.1232 118.35383,0.36946 11.8043,-0.63652 23.9297,1.42014 35.4824,-1.32617 10.066,-6.28441 5.5064,-19.37184 6.5176,-29.17382 -1.056,-9.50107 3.4259,-22.37446 -5.9386,-28.62923 -9.4101,-3.86721 -20.0998,-0.97815 -30.0614,-1.87077 -12.7129,0 -25.4258,0 -38.1387,0 15.6284,-15.97522 32.3891,-31.04896 46.2891,-48.58984 11.236,-17.51177 21.1202,-37.31689 20.159,-58.689306 1.1629,-21.899443 -7.6392,-44.283639 -24.9637,-58.107566 -16.0899,-14.031719 -38.3654,-18.0342216 -59.0938,-17.8945306 z"
         id="path1043"
         transform="translate(0,967.36216)" />
      <text
         xml:space="preserve"
         style="font-style:normal;font-weight:normal;font-size:341.333px;line-height:1.25;font-family:sans-serif;fill:#000000;fill-opacity:1;stroke:none"
         x="871.75"
         y="1207.3622"
         id="text995"><tspan
           sodipodi:role="line"
           id="tspan993"
           x="871.75"
           y="1207.3622"
           style="font-style:normal;font-variant:normal;font-weight:bold;font-stretch:normal;font-size:341.333px;font-family:Consolas;-inkscape-font-specification:Consolas;text-align:center;text-anchor:middle;fill:#ffffff">1+2</tspan></text>
    </g>
  </g>
</svg>
